PathFileType	4	(X/Y/Z)	 s04c0203.trc
DataRate	CameraRate	NumFrames	NumMarkers	Units	OrigDataRate	OrigDataStartFrame	OrigNumFrames
200	200	4	50	mm	200	1751	2000
Frame#	Time	racr			lacr			c7			jug			rlel			rdr			llel			ldr			s2			lic			ric			lasi			rasi			rpsi			lpsi			rgt			lgt			rth1			rth2			rth3			rth4			rlfc			rmfc			rsh1			rsh2			rsh3			rsh4			rlmal			rmmal			rcal			rtoe			rmt5			lth1			lth2			lth4			lth3			llfc			lmfc			lsh1			lsh2			lsh3			lsh4			llmal			lmmal			lcal			ltoe			lmt5			SBIKE			LBIKE			RBIKE			
		X1	Y1	Z1	X2	Y2	Z2	X3	Y3	Z3	X4	Y4	Z4	X5	Y5	Z5	X6	Y6	Z6	X7	Y7	Z7	X8	Y8	Z8	X9	Y9	Z9	X10	Y10	Z10	X11	Y11	Z11	X12	Y12	Z12	X13	Y13	Z13	X14	Y14	Z14	X15	Y15	Z15	X16	Y16	Z16	X17	Y17	Z17	X18	Y18	Z18	X19	Y19	Z19	X20	Y20	Z20	X21	Y21	Z21	X22	Y22	Z22	X23	Y23	Z23	X24	Y24	Z24	X25	Y25	Z25	X26	Y26	Z26	X27	Y27	Z27	X28	Y28	Z28	X29	Y29	Z29	X30	Y30	Z30	X31	Y31	Z31	X32	Y32	Z32	X33	Y33	Z33	X34	Y34	Z34	X35	Y35	Z35	X36	Y36	Z36	X37	Y37	Z37	X38	Y38	Z38	X39	Y39	Z39	X40	Y40	Z40	X41	Y41	Z41	X42	Y42	Z42	X43	Y43	Z43	X44	Y44	Z44	X45	Y45	Z45	X46	Y46	Z46	X47	Y47	Z47	X48	Y48	Z48	X49	Y49	Z49	X50	Y50	Z50	
1751	8.7550	548.910475	1320.872285	-118.979429	543.107474	1331.597278	-394.558077	529.367909	1386.463689	-258.858734	480.924683	1235.562738	-257.975635	444.163619	1056.817025	40.780339	686.512433	938.362239	-70.259035	485.156729	1106.219490	-578.603673	689.314282	947.776578	-462.685214	-50.067169	1184.340306	-275.762268	100.336135	1207.228746	-423.882662	98.685635	1183.036257	-104.477847	146.185311	1171.934543	-392.221224	145.780316	1137.480820	-147.485273	-19.234300	1222.321679	-227.235658	-20.931136	1235.617496	-304.130345	48.674298	1117.270415	-96.488820	83.684199	1146.974661	-463.988055	132.193701	972.549849	-65.645945	192.680675	907.733520	-67.193555	214.989916	825.259264	-71.428620	223.257676	925.956024	-79.294767	272.722319	691.092881	-93.766407	260.850138	675.753366	-208.232810	200.455843	587.096776	-74.703587	175.216123	501.305994	-94.603702	110.161723	445.674170	-107.429977	204.767080	488.798000	-116.039469	41.769125	308.505004	-121.117480	71.819099	312.840168	-204.581337	-29.520773	297.189937	-167.745677	250.056589	188.230446	-148.993983	176.243058	183.769729	-97.288298	152.000737	1095.375122	-464.436077	238.030919	1087.883826	-462.845631	249.379284	1119.204179	-447.663323	311.292650	1037.406675	-468.730413	452.188551	961.128327	-444.731135	481.313895	941.535775	-330.808469	418.787108	856.275244	-464.325777	399.821052	772.153318	-447.338230	340.714397	705.835505	-445.832887	425.471881	762.065747	-418.949015	268.977952	574.372992	-438.120383	266.179750	582.923565	-352.901311	183.343966	572.643395	-399.262888	467.611270	470.490223	-398.340059	390.773635	456.201046	-462.165901	-176.488104	933.952439	-279.380754	-2.850212	86.278231	-485.027603	-14.914381	80.540320	-84.148498	
1752	8.7600	546.835736	1322.484772	-118.710418	541.911732	1333.440036	-394.561621	527.693361	1388.408635	-258.791543	479.282802	1237.489491	-258.412936	443.165647	1056.781287	39.640362	686.399933	938.535152	-70.209977	485.364414	1107.002909	-577.929740	689.303379	947.776904	-462.412820	-50.744383	1184.053352	-276.415360	99.928792	1206.663438	-424.392782	97.508756	1183.182417	-105.018439	145.123351	1170.431443	-390.990332	145.025021	1137.764399	-147.762858	-20.449304	1222.254560	-228.819632	-21.386937	1235.323010	-305.395633	47.965510	1117.461280	-96.881548	82.605046	1144.528082	-463.347749	134.464218	974.313285	-66.276659	196.210283	910.816257	-67.583267	220.313729	828.804482	-71.057879	226.381553	929.435622	-80.109189	279.146671	694.940979	-93.037911	267.221718	679.911407	-207.542243	204.318914	592.736294	-74.269288	176.732625	507.716989	-94.287549	110.181679	453.848949	-107.279300	206.062569	494.499756	-115.795237	38.213015	318.764435	-121.304823	68.729522	322.059133	-204.737916	-33.472197	309.637625	-168.273141	243.034298	191.425991	-149.013692	168.908125	189.926798	-97.780051	151.657081	1091.889650	-464.726383	237.607125	1082.941721	-462.925198	249.410641	1114.283368	-448.122863	310.026516	1031.294987	-468.088558	449.714966	952.605087	-443.575317	478.829204	933.243870	-330.022556	418.402360	846.389572	-464.849695	400.189984	762.118038	-447.153558	341.935544	695.000373	-445.754041	425.709917	752.644978	-418.894603	271.890551	563.153460	-438.415379	268.606996	571.534243	-353.144687	186.251655	558.214937	-399.842153	474.125175	467.732280	-398.465206	398.152921	450.000420	-462.378427	-176.489580	933.939381	-279.517495	-2.845736	86.250461	-485.037523	-14.882530	80.545342	-84.144437	
1753	8.7650	544.772197	1324.201768	-118.277397	540.677763	1335.415914	-394.468327	525.961258	1390.390683	-258.565865	477.740751	1239.404511	-258.644203	442.200423	1056.831674	38.385889	686.146883	938.717771	-70.250222	485.492910	1107.920999	-577.027049	689.309502	947.849056	-462.226805	-51.315817	1183.350234	-277.048766	99.271315	1205.707671	-424.719371	96.468609	1183.246066	-105.544750	143.904669	1168.513866	-389.373515	144.251690	1137.905676	-148.097356	-21.138439	1221.660693	-229.710670	-21.968697	1234.933935	-306.306872	47.343506	1117.340001	-97.185418	82.274377	1141.889278	-463.387627	136.724086	976.145880	-67.015525	199.770785	913.902967	-68.086431	225.527388	832.425247	-70.860886	229.409083	932.848465	-81.034784	285.492226	698.890302	-92.352297	273.524586	684.104716	-206.915107	208.214159	598.495484	-73.895906	178.433171	514.354679	-93.997880	110.422341	462.251848	-107.176426	207.429659	500.331957	-115.536657	35.057649	329.345397	-121.549371	65.617662	331.768075	-204.823833	-36.766730	322.247103	-168.693993	236.421192	195.415398	-148.915126	161.976068	196.518155	-98.219047	151.302787	1087.908333	-464.839564	237.056392	1077.555140	-463.022538	249.431769	1108.794427	-448.609023	308.738845	1024.543896	-467.130519	447.668678	943.681548	-442.079145	475.833161	924.698026	-329.079554	417.691193	835.558490	-465.142476	400.372720	751.437859	-446.876752	343.034494	683.472536	-445.657274	425.807457	742.405959	-418.330626	274.508217	551.070310	-438.545432	270.974498	559.430657	-353.104858	189.480396	543.473228	-400.525055	479.969202	464.233690	-398.544481	404.986076	443.189646	-462.562541	-176.506137	933.899885	-279.587962	-2.865821	86.192333	-485.050357	-14.892352	80.546592	-84.156300	
1754	8.7700	542.629587	1326.020793	-117.710492	539.476425	1337.531429	-394.291422	524.223618	1392.442317	-258.154803	476.189579	1241.391815	-258.705088	441.328356	1057.007461	37.093135	685.844592	938.940643	-70.422303	485.511275	1108.903553	-575.831181	689.325776	947.969396	-462.070387	-52.143955	1182.355046	-279.541328	98.809672	1204.675534	-425.264306	95.583142	1183.193504	-106.067818	142.521125	1166.159581	-387.350415	143.591067	1138.061576	-148.431567	-21.733077	1220.892331	-230.512497	-23.009257	1233.614446	-306.761659	46.887854	1117.209731	-97.602266	81.908411	1138.700430	-463.396482	139.062425	978.147272	-67.841871	203.261946	917.061016	-68.876744	230.650549	836.055654	-70.720077	232.520599	936.413007	-82.800624	291.803983	702.945884	-91.633960	279.763610	688.266338	-206.317721	212.005842	604.458065	-73.547817	180.155573	521.020687	-93.699569	110.852213	470.848032	-107.108475	208.835969	506.319726	-115.356655	32.299107	339.996647	-122.058607	63.010458	341.509263	-204.996107	-39.754224	335.165445	-169.393810	230.042668	200.156321	-148.802218	155.415863	203.531686	-98.670765	150.881359	1083.485232	-464.967215	236.456564	1071.799356	-463.201415	249.581059	1103.006335	-449.217618	307.147461	1017.359450	-466.976302	443.355791	933.266011	-442.737913	473.052931	914.510009	-328.834871	416.694104	824.177868	-465.095096	400.402194	740.074686	-446.410433	344.100778	671.267238	-445.271429	425.869190	731.502701	-417.735093	277.197480	538.368718	-438.538496	273.401670	546.931452	-353.069442	192.366341	527.591894	-400.393253	485.824296	459.829744	-398.819292	411.461618	435.760970	-462.589101	-176.523709	933.849019	-279.615640	-2.877450	86.137419	-485.055432	-14.912629	80.510744	-84.166693	
